<svg width="383" height="820" viewBox="0 0 383 820" fill="none" xmlns="http://www.w3.org/2000/svg">
<g filter="url(#filter0_d_2_95)">
<g clip-path="url(#clip0_2_95)">
<rect x="379" width="812" height="375" rx="40" transform="rotate(90 379 0)" fill="#AEAFF7"/>
<circle opacity="0.4" cx="95" cy="429" r="196" fill="#FCDDEC"/>
<g clip-path="url(#clip1_2_95)">
<path d="M214.069 408.25L213.697 434.658C213.697 434.658 255.403 465.134 263.698 516.689C271.994 568.243 270.265 646.157 261.501 696.199C252.737 746.241 235.63 845.377 233.301 876.658C230.972 907.939 236.423 939.076 230.024 951.919C223.625 964.763 215.234 969 215.234 969C215.234 969 200.54 834.634 200.083 828.26L185.737 628.896C185.737 628.896 175.233 546.385 182.7 529.376C190.167 512.368 211.656 505.79 211.656 505.79L183.697 506.882L214.069 408.25Z" fill="#954441"/>
<path d="M241.297 486.093L247.78 476.49C247.576 476.99 247.26 477.436 246.856 477.794C246.452 478.152 245.971 478.412 245.451 478.554C236.519 481.015 193.829 494.543 168.931 533.95C141.067 578.122 112.063 650.443 100.502 699.909C88.9411 749.375 65.6874 847.274 55.6032 876.946C45.519 906.619 28.1717 933.206 29.0001 947.49C29.2482 952.928 30.4679 958.278 32.6016 963.287C32.8645 963.886 33.2892 964.401 33.828 964.773C34.3669 965.146 34.9987 965.361 35.6528 965.394C36.3069 965.428 36.9574 965.279 37.5317 964.964C38.1059 964.649 38.5811 964.18 38.9042 963.611C51.9176 940.456 102.531 850.455 105.064 845.498L196.47 667.848L196.554 667.692C198.067 665.111 238.572 595.671 238.38 577.426C238.296 569.408 235.054 562.146 231.381 556.492C230.967 555.847 230.775 555.084 230.834 554.319C230.892 553.554 231.199 552.83 231.706 552.254C232.213 551.679 232.894 551.285 233.646 551.131C234.397 550.978 235.178 551.073 235.871 551.403L241.789 554.212C242.299 554.452 242.859 554.568 243.422 554.548C243.985 554.528 244.536 554.373 245.027 554.097C245.518 553.821 245.936 553.431 246.246 552.96C246.556 552.49 246.748 551.951 246.807 551.391L243.578 495.803C244.07 491.758 242.846 482.311 241.297 486.093Z" fill="#954441"/>
<path d="M267.708 536.074C263.326 468.015 213.889 432.497 213.889 432.497L214.273 405.417L190.864 393.942L167.454 405.417L167.838 432.497C167.838 432.497 118.317 468.015 113.935 536.074C109.554 604.133 112.375 643.72 112.375 643.72H269.268C269.268 643.72 272.09 604.121 267.708 536.074Z" fill="#EF5DA8"/>
<path opacity="0.1" d="M276.772 537.095C252.762 456.972 213.889 432.461 213.889 432.461L214.273 405.382L190.864 393.906L167.454 405.382L159.23 444.813C159.23 444.813 146.313 435.69 96.3601 537.095C59.5407 611.912 34.078 800.557 34.078 800.557L178.366 765.219C179.986 764.809 181.63 764.5 183.288 764.294C190.41 763.429 197.601 763.276 204.753 763.838C206.435 763.981 208.107 764.225 209.76 764.571L354 793.727C354 793.727 307.949 641.26 276.772 537.095Z" fill="#FCDDEC"/>
<path d="M196.818 255.015C211.736 255.015 223.83 242.923 223.83 228.008C223.83 213.092 211.736 201 196.818 201C181.9 201 169.807 213.092 169.807 228.008C169.807 242.923 181.9 255.015 196.818 255.015Z" fill="#371B34"/>
<path d="M224.466 313.208C233.105 313.208 240.109 306.205 240.109 297.567C240.109 288.929 233.105 281.927 224.466 281.927C215.827 281.927 208.824 288.929 208.824 297.567C208.824 306.205 215.827 313.208 224.466 313.208Z" stroke="#EF5DA8" stroke-miterlimit="10"/>
<path d="M169.806 313.208C178.446 313.208 185.449 306.205 185.449 297.567C185.449 288.929 178.446 281.927 169.806 281.927C161.167 281.927 154.164 288.929 154.164 297.567C154.164 306.205 161.167 313.208 169.806 313.208Z" stroke="#EF5DA8" stroke-miterlimit="10"/>
<path d="M74.4638 407.458C74.4638 407.458 103.912 376.825 134.549 358.124C165.186 339.423 185.45 328.896 185.45 313.255C185.45 297.615 184.046 274.076 185.45 265.458C186.759 257.356 196.843 249.529 205.199 258.124C207.924 260.933 208.8 264.126 208.8 271.424V313.195C208.8 313.195 205.751 325.439 246.328 350.106C286.905 374.773 314.372 400.232 318.742 405.405C323.112 410.579 329.09 438.031 298.454 432.053C267.817 426.075 232.798 414.948 232.798 414.948C232.798 414.948 187.863 406.258 180.264 399.836C175.2 395.735 169.572 392.384 163.553 389.885C163.553 389.885 159.267 383.127 169.772 384.315C180.276 385.504 198.968 381.915 218.068 389.489C237.168 397.063 278.549 391.085 290.482 397.891L230.985 392.562L223.782 384.363L201.093 359.72L176.278 364.87L150.72 388.685L162.341 389.753C162.341 389.753 178.715 389.753 180.132 389.141C181.549 388.529 201.357 374.185 214.502 381.267C227.648 388.349 226.027 398.239 226.027 398.239C226.027 398.239 205.619 400.46 196.507 398.239C187.395 396.019 195.09 406.534 170.024 410.771C170.024 410.771 84.7882 443.516 74.4158 424.119C74.4638 424.071 69.2296 416.797 74.4638 407.458Z" fill="#954441"/>
<path d="M229.136 359.444C224.334 347.561 231.129 340.011 231.129 340.011C231.129 340.011 224.551 344.668 219.532 348.929C212.906 354.571 199.232 354.799 199.232 354.799C169.808 355.999 160.288 341.931 160.288 341.931C160.288 341.931 160.588 355.699 150.924 364.738C140.359 374.665 147.562 389.057 148.211 390.737C148.703 390.821 162.617 390.509 162.617 390.509H163.709C163.121 389.441 160.576 384.051 170.036 385.132C174.742 385.672 181.104 385.24 188.415 385.3C195.714 381.567 206.555 377.593 214.826 382.023C220.829 385.24 223.71 389.033 225.115 392.214C227.948 392.214 230.781 392.358 233.602 392.478C234.709 390.295 235.617 388.017 236.315 385.672C239.089 372.648 233.974 371.34 229.136 359.444Z" fill="#EF5DA8"/>
<path d="M107.153 777.294C109.608 777.487 112.075 777.451 114.524 777.186C116.942 776.918 119.325 776.391 121.631 775.614C123.947 774.88 126.152 773.834 128.186 772.505C130.256 771.179 132.191 769.651 133.96 767.944C132.51 769.995 130.739 771.799 128.714 773.285C127.701 774.036 126.634 774.711 125.52 775.302C124.383 775.857 123.212 776.343 122.015 776.754C119.619 777.556 117.121 778.013 114.596 778.111C112.087 778.226 109.576 777.95 107.153 777.294V777.294Z" fill="#371B34"/>
<path d="M210.348 769.024C212.604 770.014 214.947 770.794 217.347 771.352C219.712 771.889 222.125 772.179 224.55 772.217C226.975 772.283 229.398 772.021 231.753 771.436C234.145 770.873 236.474 770.068 238.704 769.036C236.66 770.497 234.394 771.62 231.993 772.361C230.787 772.735 229.555 773.02 228.308 773.213C227.053 773.364 225.79 773.433 224.526 773.417C221.996 773.375 219.486 772.971 217.071 772.217C214.679 771.503 212.412 770.426 210.348 769.024V769.024Z" fill="#371B34"/>
<path d="M210.048 644.105L192.508 678.23L174.801 712.272L139.374 780.343C136.421 786.021 133.372 791.626 130.298 797.256L121.15 814.121L102.879 847.862L84.5832 881.592L66.1315 915.201L84.067 881.279L102.231 847.49C114.236 824.912 126.433 802.405 138.378 779.791L174.153 711.9L192.052 677.954L210.048 644.105Z" fill="#371B34"/>
<path d="M117.405 644.105C117.405 644.105 108.785 663.766 100.466 699.932Z" fill="#371B34"/>
<path d="M220.288 445.629C231.176 441.284 224.369 422.174 227.995 418.441C239.436 406.666 232.305 397.351 231.777 396.679C230.3 394.278 229.099 394.278 228.979 391.59C228.379 388.889 229.724 386.92 230.564 384.22C230.828 383.127 229.64 376.345 229.16 375.445C227.227 370.104 221.956 367.043 218.979 365.35C218.556 365.114 218.208 364.764 217.974 364.34C217.741 363.915 217.631 363.433 217.659 362.95C217.983 358.148 214.153 349.146 203.553 346.145C202.905 345.653 199.663 334.55 191.548 332.833C188.723 332.531 185.873 332.531 183.048 332.833C182.712 332.893 180.767 333.313 180.143 331.825C179.381 329.716 177.879 327.954 175.917 326.867C173.906 325.657 171.731 324.744 169.459 324.155C167.47 323.885 165.462 323.785 163.456 323.855C162.039 323.853 160.636 324.131 159.326 324.671C156.505 325.871 151.571 327.96 150.623 329.472C149.71 329.928 149.29 330.877 148.57 331.525C147.828 332.331 147.296 333.309 147.021 334.37C146.942 334.737 146.769 335.077 146.519 335.357C146.268 335.637 145.949 335.847 145.593 335.966C143.552 336.35 137.933 339.855 137.285 341.187C135.616 342.904 133.792 344.512 133.023 346.925C131.991 350.19 131.187 353.395 132.927 356.756C133.564 357.956 134.716 359.505 133.143 360.981L128.641 364.702C126.119 367.189 124.602 370.518 124.38 374.053C124.056 378.47 127.741 384.352 132.015 386.248C132.507 386.476 133.215 386.464 133.215 387.256C133.217 387.363 133.188 387.467 133.131 387.557C131.734 389.553 131.174 392.018 131.571 394.422C131.908 395.943 131.722 397.534 131.042 398.936C130.043 399.848 129.26 400.972 128.749 402.225C126.889 405.994 125.616 409.931 126.276 414.228C126.162 415.082 126.211 415.949 126.421 416.785C127.249 419.918 129.386 422.03 131.907 423.855C134.632 425.823 137.837 426.255 141.031 426.664C141.421 426.778 141.824 426.843 142.231 426.856C143.54 427.336 144.92 427.732 145.148 429.436C145.046 429.834 144.884 430.215 144.668 430.565C143.801 432.403 143.593 434.485 144.08 436.458C144.455 439.576 145.938 442.456 148.258 444.573C151.223 446.993 154.87 448.428 158.69 448.678C159.034 448.708 159.379 448.708 159.722 448.678C160.407 448.606 161.019 448.678 161.079 449.542C161.427 452.232 162.313 454.824 163.684 457.164C164.08 457.968 163.912 458.484 163.096 458.809C162.548 459.233 162.088 459.759 161.739 460.357C156.001 468.399 148.318 474.041 139.518 478.266C132.627 481.579 125.112 483.187 117.909 485.228C116.754 485.847 115.498 486.254 114.199 486.428C109.686 487.749 105.016 488.553 100.994 491.23C96.0838 494.531 96.9962 496.991 101.438 505.43C103.007 508.344 104.768 511.151 106.708 513.832C108.173 515.921 109.397 518.501 112.039 519.594C113.06 519.81 114.115 519.81 115.136 519.594C115.592 519.594 116.048 519.462 116.504 519.45C117.619 519.475 118.708 519.112 119.585 518.422C120.461 517.732 121.07 516.758 121.306 515.669C121.747 511.95 120.746 508.205 118.509 505.202C117.072 502.898 115.239 500.866 113.095 499.2C114.772 499.001 116.466 498.973 118.149 499.116C118.737 498.816 119.35 499.116 119.986 498.864L126.12 498.072C126.697 497.748 127.393 498.144 127.969 497.76C128.939 497.252 129.973 496.877 131.042 496.643C131.72 496.81 132.433 496.764 133.083 496.511C136.241 495.407 139.398 494.387 142.471 493.006C149.126 490.071 155.422 486.382 161.235 482.011C165.914 478.617 169.91 474.369 173.012 469.492C173.925 467.885 174.696 466.203 175.317 464.462C175.605 463.694 175.917 462.866 176.926 462.902C178.653 462.824 180.37 462.583 182.052 462.182C183.769 461.893 183.865 462.001 183.48 463.754C182.324 469.185 180.37 474.415 177.682 479.274C174.216 485.528 169.397 490.929 163.576 495.083C158.102 499.056 152.183 502.285 146.529 505.994C145.136 506.894 143.48 507.434 142.459 508.851C140.767 510.159 139.026 511.395 137.417 512.8C135.727 514.06 134.272 515.608 133.119 517.373C131.619 519.99 131.847 521.49 134.68 524.083C135.244 524.587 135.88 525.067 136.457 525.523C139.362 527.644 142.295 529.737 145.256 531.801C148.054 533.734 150.575 536.146 153.9 537.275C154.804 537.521 155.757 537.521 156.661 537.275C156.881 537.22 157.107 537.188 157.333 537.179C158.175 537.234 159.018 537.08 159.786 536.732C160.554 536.383 161.225 535.85 161.738 535.181C162.251 534.511 162.591 533.725 162.727 532.893C162.863 532.06 162.792 531.207 162.52 530.409C162.57 529.501 162.339 528.6 161.859 527.828C160.319 525.31 158.23 523.173 155.749 521.574C154.296 520.578 152.712 519.822 151.211 518.909C151.326 518.752 151.473 518.62 151.643 518.523C151.813 518.425 152.001 518.365 152.195 518.345C155.879 517.211 159.426 515.673 162.772 513.76C168.964 510.309 174.717 506.121 179.903 501.289C182.651 498.915 185.167 496.287 187.418 493.438C188.09 492.502 194.621 483.283 197.562 480.091C197.562 480.091 204.981 469.684 208.979 466.527C223.481 454.992 221.08 446.601 220.288 445.629Z" fill="#371B34"/>
<path d="M158.799 448.27C157.418 448.858 155.99 448.39 154.597 448.522C149.003 447.765 143.552 443.504 142.784 438.523C142.436 437.971 142.784 437.323 142.484 436.722C142.333 434.194 142.961 431.68 144.285 429.52C144.369 429.433 144.481 429.377 144.602 429.364C144.722 429.351 144.844 429.381 144.945 429.448C145.003 429.495 145.05 429.553 145.083 429.619C145.116 429.686 145.134 429.758 145.137 429.832C145.17 430.35 145.079 430.869 144.873 431.345C144.019 433.689 144.118 436.275 145.149 438.547C145.605 439.995 146.268 441.37 147.118 442.628C148.983 444.894 151.497 446.535 154.321 447.333C155.747 447.907 157.263 448.224 158.799 448.27V448.27Z" fill="#F09A59"/>
<path d="M128.642 364.702C127.924 365.651 127.274 366.65 126.698 367.691C125.53 369.817 124.891 372.192 124.837 374.617C124.893 377.443 125.967 380.154 127.862 382.251C128.675 383.369 129.669 384.342 130.803 385.132C131.936 385.751 133.107 386.296 134.309 386.765C134.269 386.881 134.204 386.987 134.12 387.076C134.036 387.165 133.933 387.235 133.82 387.282C133.706 387.328 133.584 387.35 133.461 387.346C133.339 387.342 133.218 387.311 133.108 387.257C130.707 386.404 128.174 385.828 126.313 383.812C124.376 381.833 123.195 379.238 122.976 376.478C122.748 375.808 122.748 375.082 122.976 374.413C123.24 370.248 125.557 367.259 128.642 364.702Z" fill="#F09E54"/>
<path d="M137.261 341.152C137.345 341.656 136.769 342.292 136.264 342.784C135.174 343.868 134.302 345.152 133.695 346.565C132.516 349.058 132.098 351.843 132.495 354.571C132.845 355.977 133.382 357.329 134.092 358.592C134.752 360.141 134.932 360.069 133.071 360.993C128.137 353.443 130.862 345.317 137.261 341.152Z" fill="#F09E54"/>
<path d="M133.084 387.557C133.192 388.661 132.436 389.489 132.184 390.486C131.787 392.272 131.787 394.124 132.184 395.911C132.352 396.477 132.325 397.083 132.108 397.632C131.89 398.18 131.494 398.64 130.983 398.936C129.302 395.455 129.386 389.897 133.084 387.557Z" fill="#F09E54"/>
<path d="M144.837 429.472H144.669L141.391 427.348C140.959 426.255 142.087 426.736 142.424 426.399C143.804 426.568 144.549 427.792 145.665 428.428C146.109 428.68 145.737 429.136 145.569 429.472C145.522 429.524 145.464 429.565 145.4 429.594C145.336 429.622 145.267 429.636 145.197 429.636C145.127 429.636 145.058 429.622 144.993 429.594C144.929 429.565 144.872 429.524 144.825 429.472H144.837Z" fill="#F09A59"/>
<path d="M148.738 331.453C148.09 332.722 147.56 334.048 147.154 335.414C147.01 336.314 146.133 335.834 145.569 335.93C146.171 334.224 147.129 332.665 148.378 331.357C148.439 331.325 148.51 331.317 148.577 331.335C148.644 331.353 148.701 331.395 148.738 331.453V331.453Z" fill="#F09E54"/>
<path d="M201.296 348.102C201.434 348.517 201.432 348.965 201.291 349.379C201.151 349.793 200.878 350.15 200.516 350.394C199.941 350.773 199.54 351.365 199.399 352.039C199.063 353.239 197.839 353.491 196.878 353.923C196.326 354.187 196.266 353.623 196.218 353.215C195.776 351.065 194.657 349.113 193.025 347.646C192.689 347.297 192.376 346.913 191.824 347.297C191.272 347.682 191.476 348.21 191.824 348.654C192.172 349.098 192.497 349.434 192.857 349.854C193.845 350.902 194.503 352.217 194.751 353.636C194.998 355.055 194.824 356.516 194.249 357.836C193.233 359.397 191.641 360.493 189.819 360.885C189.231 361.065 188.367 361.089 188.619 361.966C188.883 363.022 189.819 362.482 190.336 362.302C193.109 361.401 195.534 360.093 196.218 356.888C196.249 356.6 196.36 356.326 196.538 356.097C196.716 355.868 196.955 355.693 197.227 355.592C200.432 354.584 201.56 351.703 203.085 349.17C205.005 349.314 206.868 349.892 208.531 350.861C210.195 351.83 211.617 353.164 212.689 354.764C213.013 355.184 216.29 359.481 216.194 360.225C215.21 360.585 216.411 362.086 216.363 363.01C216.315 363.934 215.438 364.606 214.442 365.543C211.488 365.675 208.919 366.587 207.239 369.144C206.783 369.663 206.434 370.268 206.214 370.923C205.993 371.579 205.905 372.271 205.954 372.961C206.026 373.441 206.23 373.885 206.807 373.849C207.383 373.813 207.431 373.453 207.515 373.009C208.139 369.264 210.144 367.463 213.913 367.211C216.307 367.332 218.639 368.015 220.72 369.204C221.547 369.595 222.225 370.244 222.653 371.052C226.123 379.455 224.166 387.485 221.453 395.539C220.117 395.802 218.736 395.698 217.455 395.239C216.565 394.995 215.651 394.85 214.73 394.807C214.238 394.807 213.709 394.807 213.649 395.407C213.589 396.007 214.106 396.247 214.67 396.271C215.649 396.292 216.609 396.552 217.465 397.029C218.321 397.506 219.047 398.186 219.58 399.008C220.055 399.653 220.412 400.376 220.636 401.145C220.87 401.797 220.87 402.509 220.636 403.161C220.144 403.953 219.436 403.029 218.872 402.921C216.471 402.513 211.092 404.422 211.092 404.422C210.732 405.286 226.699 416.869 226.315 417.625C222.437 425.896 227.359 438.547 221.621 442.892C203.541 456.588 158.654 424.779 141.187 424.779C125.172 424.779 125.064 405.754 130.947 402.129C131.223 401.961 132.519 404.109 133.684 405.178C137.045 408.203 146.649 410.459 148.246 406.858C148.03 406.654 146.421 405.478 146.637 405.274L148.81 403.857C149.17 403.629 148.534 402.345 148.078 402.561C147.622 402.777 147.082 403.137 146.589 403.437C144.188 404.914 138.87 404.542 136.985 402.525C135.868 401.3 134.985 399.88 134.38 398.336C133.429 396.035 133.187 393.502 133.684 391.062C134.284 388.313 135.797 386.897 138.63 386.789C140.023 386.789 141.475 387.101 142.544 385.408C145.149 388.229 147.982 386.993 150.695 386.368C151.779 385.97 152.789 385.394 153.684 384.664C154.201 384.34 154.885 383.932 154.369 383.188C153.852 382.443 153.324 383.056 152.856 383.392C151.112 384.821 148.903 385.56 146.649 385.468C144.705 385.336 142.003 383.668 141.415 381.735C141.235 381.123 141.331 380.079 140.335 380.331C139.338 380.583 139.891 381.531 139.999 382.215C140.067 382.85 140.341 383.444 140.779 383.908C141.571 384.688 141.031 385.108 140.323 385.108C137.706 385.108 135.028 385.684 132.555 384.292C130.474 383.07 128.768 381.302 127.621 379.178C125.629 375.709 126.049 372.289 127.777 368.976C129.242 365.687 133.624 362.806 133.9 362.542C135.845 360.633 136.301 360.789 138.45 362.278C139.136 362.745 139.913 363.062 140.73 363.209C141.547 363.356 142.386 363.329 143.192 363.13C144.392 362.938 144.536 363.322 144.5 364.33C144.392 367.055 146.217 368.976 147.442 371.136C147.487 371.248 147.557 371.347 147.646 371.428C147.735 371.509 147.841 371.569 147.956 371.604C148.071 371.638 148.192 371.647 148.311 371.628C148.43 371.609 148.543 371.564 148.642 371.496C149.266 371.088 148.894 370.632 148.642 370.164C147.91 368.868 147.19 367.559 146.445 366.287C145.245 364.162 146.445 360.081 148.714 359.193C149.314 358.953 150.047 358.677 149.555 357.848C149.062 357.02 148.522 357.632 148.03 357.848C147.126 358.245 146.343 358.875 145.761 359.673C144.248 361.846 141.847 362.11 139.446 361.041C137.935 360.598 136.649 359.598 135.845 358.245C134.728 355.844 133.612 353.443 134.188 350.61C134.75 347.824 136.081 345.25 138.03 343.18C139.419 341.778 140.99 340.567 142.7 339.579C143.276 339.195 148.03 337.515 148.882 334.778C149.314 332.809 151.283 332.041 152.136 330.469C153.168 328.692 155.161 327.756 156.83 326.94C158.138 326.104 159.648 325.64 161.199 325.595C161.884 325.703 163.997 325.595 164.393 325.595C164.789 325.595 165.329 325.595 165.785 325.595C168.593 325.683 171.32 326.552 173.661 328.104C175.384 329.279 176.704 330.955 177.442 332.905C177.85 334.034 180.443 334.826 181.044 334.682C182.496 334.358 183.973 334.154 185.438 333.902C185.822 333.998 187.959 334.13 188.679 334.274C190.691 334.634 192.605 335.415 194.293 336.568C195.982 337.72 197.407 339.217 198.475 340.96C198.715 341.344 199.003 341.704 199.267 342.076C200.624 343.612 200.468 345.497 200.468 347.322C200.444 348.054 200.996 347.225 201.296 348.102Z" fill="#F09E54"/>
<path d="M206.207 439.243C209.218 441.609 212.465 443.66 215.895 445.364C216.164 445.462 216.383 445.662 216.507 445.92C216.63 446.178 216.648 446.474 216.555 446.745C215.991 447.345 215.354 447.009 214.826 446.745C214.082 446.445 213.374 446.049 212.653 445.689C210.252 444.488 210.252 444.488 208.944 446.721C207.816 448.726 206.297 450.485 204.478 451.894C202.7 453.187 200.553 453.873 198.355 453.851C197.035 453.851 195.714 453.851 194.394 453.851C193.954 453.9 193.509 453.848 193.093 453.698C192.676 453.548 192.3 453.305 191.993 452.987C191.996 450.762 191.381 448.58 190.216 446.685C189.856 446.181 189.832 445.076 188.871 445.581C187.911 446.085 188.631 446.781 188.871 447.417C189.4 448.617 190.432 449.746 190.168 451.258C190.048 452.146 189.472 452.338 188.679 452.218C188.048 452.121 187.402 452.201 186.814 452.452C186.227 452.702 185.721 453.112 185.354 453.635C184.39 454.788 183.165 455.694 181.781 456.278C180.397 456.863 178.893 457.109 177.395 456.996C174.98 457.088 172.564 456.902 170.192 456.444C166.59 455.591 164.117 453.587 163.217 449.89C162.424 448.833 163.613 447.381 162.532 446.385C162.172 446.229 161.716 446.241 161.488 445.845C160.936 444.884 160.035 444.86 159.087 444.836C153.661 444.728 149.699 442.148 146.866 437.634C146.504 437.047 146.293 436.379 146.254 435.69C145.305 433.517 146.254 431.645 147.238 429.796C148.775 429.556 150.335 429.508 151.884 429.652C155.63 429.667 159.329 428.812 162.688 427.155C165.877 425.632 169.47 425.17 172.941 425.835C175.666 426.291 178.331 427.035 181.008 427.684C181.264 427.727 181.509 427.822 181.727 427.962C181.946 428.102 182.134 428.285 182.281 428.5C182.281 429.376 181.62 429.64 181.08 430C178.043 431.969 177.479 434.934 177.707 438.198C177.904 436.901 178.185 435.618 178.547 434.357C179.651 430.996 181.788 429.556 185.306 429.7C186.106 429.878 186.94 429.82 187.707 429.532C189.616 428.5 191.645 429.028 193.625 429.016C195.426 429.448 196.134 431.128 197.227 432.329C198.571 433.829 199.988 435.246 201.405 436.662C202.783 437.884 204.427 438.768 206.207 439.243V439.243Z" fill="#F09E54"/>
<path d="M192.053 452.999C194.696 453.572 197.424 453.649 200.096 453.227C204.61 452.566 207.035 449.218 209.028 445.58C209.82 444.116 210.444 443.9 211.873 444.716C213.268 445.724 214.865 446.417 216.555 446.745C215.991 449.145 215.883 451.546 214.598 453.827C213.31 456.024 211.424 457.81 209.16 458.976C205.69 460.873 202.101 462.577 198.043 462.673C195.33 462.854 192.622 462.254 190.24 460.945C188.595 459.997 188.511 459.3 189.928 458.1C191.536 456.732 191.632 454.823 192.053 452.999Z" fill="#F09A59"/>
<path d="M182.28 428.752C176.794 427.024 171.344 425.151 165.473 426.675C163.432 427.18 161.739 428.44 159.735 429.076C155.719 430.348 151.451 430.612 147.309 429.844C148.054 429.124 148.222 428.044 149.122 427.384C151.367 425.727 153.804 426.351 156.217 426.567C156.837 426.68 157.451 426.828 158.054 427.012C158.606 427.144 159.158 427.084 159.338 426.471C159.519 425.859 158.918 425.571 158.426 425.463C157.43 425.247 156.409 425.103 155.257 424.911C155.796 424.343 156.511 423.971 157.286 423.855C160.242 422.953 163.141 421.871 165.965 420.614C167.6 419.757 169.443 419.379 171.283 419.521C175.377 420.11 179.027 422.33 183.156 422.75C184.513 422.894 185.798 423.374 187.166 423.471H189.339C189.571 423.462 189.801 423.51 190.011 423.61C190.22 423.711 190.401 423.86 190.54 424.047C191.74 425.415 192.832 426.94 193.949 428.392C194.085 428.545 194.177 428.731 194.215 428.932C194.253 429.133 194.236 429.34 194.165 429.532C192.604 429.532 191.056 429.532 189.507 429.532C189.197 429.503 188.884 429.548 188.594 429.663C188.304 429.777 188.045 429.959 187.838 430.192C186.706 429.323 185.285 428.92 183.865 429.064C183.313 429.064 182.724 429.28 182.28 428.752Z" fill="#F09A59"/>
<path d="M229.088 414.924C228.379 415.657 227.251 416.125 227.299 417.325C226.999 417.481 226.615 417.325 226.35 417.625L222.161 414.216C221.961 413.288 221.989 412.325 222.242 411.409C222.495 410.494 222.965 409.653 223.613 408.959C224.246 409.711 224.591 410.664 224.586 411.647C224.586 412.104 224.766 412.44 225.294 412.428C225.822 412.416 225.918 412.044 225.978 411.599C226.029 410.271 225.65 408.962 224.898 407.866C224.55 407.206 224.238 406.534 223.913 405.862C223.542 403.501 222.905 401.19 222.017 398.972C221.789 398.396 221.464 397.772 221.813 397.171C223.577 396.283 225.63 395.971 227.071 394.447C227.731 394.315 228.091 394.759 228.451 395.203C231.38 399.424 232.523 404.631 231.633 409.691C231.487 410.728 231.074 411.708 230.432 412.536C230.156 413.46 229.292 413.988 229.088 414.924Z" fill="#F09A59"/>
<path d="M163.276 449.902C165.677 455.352 170.275 456.552 175.569 456.54C177.349 456.647 179.135 456.506 180.875 456.12C182.343 455.743 183.648 454.901 184.597 453.719C185.797 452.195 187.166 451.031 189.303 451.799C189.867 451.991 189.939 451.427 190.227 451.223C190.356 452.422 190.32 453.634 190.119 454.824C189.915 455.659 189.515 456.433 188.951 457.083C188.387 457.732 187.676 458.237 186.878 458.557C184.263 459.861 181.395 460.577 178.474 460.657C176.29 460.657 174.117 460.405 171.956 460.225C168.198 459.901 165.953 457.332 164.573 454.067C163.96 452.771 162.82 451.547 163.276 449.902Z" fill="#F09A59"/>
<path d="M221.465 395.526C221.326 394.151 221.506 392.763 221.993 391.469C224.59 384.885 224.654 377.572 222.173 370.944C223.59 370.884 223.998 372.228 224.911 372.9C226.274 374.684 227.378 376.652 228.188 378.746C228.995 381.091 229.215 383.598 228.83 386.048C228.445 388.498 227.466 390.817 225.979 392.802C225.655 394.266 224.418 394.59 223.242 394.986C222.654 395.178 222.065 395.346 221.465 395.526Z" fill="#F09A59"/>
<path d="M223.614 409.007C223.133 410.759 222.641 412.512 222.161 414.264C218.728 411.863 215.87 408.755 212.653 406.03C216.915 403.113 222.521 404.541 223.614 409.007Z" fill="#F09E54"/>
<path d="M194.153 429.484C192.749 427.429 191.226 425.457 189.591 423.579C189.471 423.507 189.435 423.447 189.471 423.375C189.507 423.303 189.555 423.279 189.603 423.279C190.277 423.201 190.959 423.316 191.571 423.609C192.183 423.902 192.699 424.361 193.061 424.935C195.758 428.664 198.749 432.172 202.005 435.426C203.349 436.758 204.802 437.971 206.206 439.243C205.251 439.243 204.307 439.045 203.433 438.66C202.558 438.276 201.774 437.714 201.128 437.01C198.595 434.682 196.482 431.993 194.153 429.484Z" fill="#3F3632"/>
<path d="M146.313 435.69C147.125 437.146 148.04 438.542 149.05 439.867C150.338 441.395 151.968 442.597 153.808 443.377C155.647 444.157 157.645 444.493 159.639 444.356C161.487 444.236 161.643 445.665 162.544 446.445C159.661 447.012 156.676 446.733 153.948 445.641C151.247 444.536 148.642 443.012 147.417 440.311C146.865 438.931 145.449 437.467 146.313 435.69Z" fill="#F09A59"/>
<path d="M117.837 517.613C118.965 511.935 116.528 507.722 113.299 503.797C112.387 502.693 111.33 501.684 110.394 500.604C110.082 500.256 109.542 499.764 110.274 499.332C110.826 498.996 111.474 498.828 111.907 499.572C113.443 501.973 115.916 503.617 117.357 506.186C118.941 509.007 120.118 511.827 119.758 515.116C119.703 515.67 119.494 516.198 119.155 516.639C118.815 517.081 118.359 517.418 117.837 517.613V517.613Z" fill="#F09E54"/>
<path d="M159.351 535.09C159.999 532.173 158.835 530.024 157.334 527.984C155.246 525.202 152.464 523.017 149.267 521.646C148.439 521.262 147.586 520.914 146.758 520.518C146.458 520.374 146.002 520.194 146.086 519.821C146.242 519.185 146.902 519.077 147.406 518.825C147.91 518.573 148.066 518.825 148.15 519.197C148.379 520.146 149.171 520.314 149.915 520.638C154.225 522.474 158.091 524.923 160.336 529.208C161.608 531.657 162.1 533.157 159.351 535.09Z" fill="#F09E54"/>
<path d="M230.108 412.836C232.665 406.594 231.308 400.832 227.995 395.299C228.451 394.506 229.195 394.902 229.832 394.842C232.313 398.29 233.46 402.521 233.061 406.75C233.016 409.142 232.088 411.434 230.456 413.184C230.144 413.256 229.976 413.196 230.108 412.836Z" fill="#F09E54"/>
<path d="M163.288 458.941C160.659 455.844 159.879 452.135 159.687 448.222C161.055 447.754 161.499 448.222 161.535 449.686C161.785 452.234 162.646 454.684 164.044 456.828C164.368 457.428 164.777 458.028 164.344 458.737C164.08 459.313 163.732 459.217 163.288 458.941Z" fill="#F09A59"/>
<path d="M199.952 471.268C199.507 469.479 199.027 467.667 198.607 465.89C198.403 465.014 198.067 464.69 197.058 464.834C195.455 465.067 193.822 464.973 192.256 464.558C191.5 464.378 190.984 463.874 191.224 463.238C191.56 462.337 192.16 463.154 192.568 463.334C194.341 464.05 196.281 464.249 198.163 463.91C199.363 463.742 200.204 464.09 200.288 465.446C200.408 467.451 201.632 469.227 201.488 471.292C201.258 471.441 200.99 471.518 200.716 471.513C200.443 471.509 200.176 471.424 199.952 471.268Z" fill="#F09A59"/>
<path d="M146.649 407.626C143.024 407.631 139.435 406.904 136.097 405.49C134.541 404.71 133.244 403.497 132.363 401.997C132.111 401.624 132.003 401.12 131.427 401.072C131.715 400.34 132.363 399.956 132.879 399.44C134.44 400.64 134.716 402.561 136.049 403.857C137.241 404.814 138.618 405.513 140.094 405.91C142.243 406.762 144.632 406.51 146.649 407.626Z" fill="#F09E54"/>
<path d="M200.084 471.076C200.504 471.364 201.38 470.632 201.452 471.304C198.452 475.415 194.779 478.991 190.588 481.879C190.143 482.179 189.783 482.731 189.099 482.563C188.907 482.167 189.267 481.915 189.351 481.591C193.502 478.724 197.132 475.168 200.084 471.076Z" fill="#F09E54"/>
<path d="M187.166 423.567C181.666 423.157 176.283 421.766 171.271 419.462C174.189 418.885 176.578 420.662 179.207 421.298C181.836 421.934 184.513 422.618 187.166 423.267C187.286 423.339 187.322 423.399 187.286 423.459C187.277 423.485 187.261 423.509 187.24 423.528C187.219 423.547 187.194 423.56 187.166 423.567Z" fill="#F09E54"/>
<path d="M173.708 463.082C172.16 466.683 170.875 470.368 167.706 472.961C167.68 472.968 167.653 472.97 167.627 472.965C167.6 472.96 167.576 472.949 167.555 472.932C167.533 472.916 167.516 472.895 167.505 472.87C167.494 472.846 167.489 472.819 167.49 472.793C169.459 469.624 171.535 466.527 172.292 462.782C172.322 462.671 172.375 462.568 172.449 462.479C172.523 462.391 172.615 462.32 172.719 462.271C172.822 462.222 172.936 462.196 173.051 462.195C173.166 462.194 173.28 462.218 173.384 462.266C173.84 462.398 173.84 462.734 173.708 463.082Z" fill="#EE8631"/>
<path d="M221.812 397.219C222.808 399.445 223.564 401.771 224.069 404.157C224.165 404.769 224.453 405.357 223.913 405.909C222.292 404.901 222.196 403.341 222.208 401.636C222.214 400.856 222.044 400.084 221.711 399.378C221.379 398.671 220.892 398.048 220.287 397.555C220.804 397.111 221.356 397.387 221.812 397.219Z" fill="#F09E54"/>
<path d="M173.709 463.082C173.48 461.881 172.892 462.41 172.328 462.782C171.308 461.977 170.011 462.53 168.871 462.097C167.892 461.79 166.934 461.421 166.001 460.993C165.437 460.693 165.269 460.333 165.617 459.793C165.965 459.253 166.47 459.265 166.818 459.697C168.474 461.485 170.743 461.677 172.928 462.097C173.709 462.121 174.321 462.145 173.709 463.082Z" fill="#F09A59"/>
<path d="M230.108 412.836L230.456 413.184C230.118 413.848 229.653 414.439 229.087 414.924C228.835 413.94 229.724 413.46 230.108 412.836Z" fill="#F09E54"/>
<path d="M187.862 421.538C188.559 421.298 189.399 421.85 189.999 421.118C190.407 421.394 190.66 421.778 189.999 421.814C189.339 421.85 188.499 422.09 187.862 421.538Z" fill="#F09E54"/>
<path d="M187.167 423.566V423.278H189.567C189.562 423.378 189.562 423.479 189.567 423.578L187.167 423.566Z" fill="#F09E54"/>
<path d="M146.649 405.274V405.898C146.301 405.898 145.869 405.898 145.881 405.502C145.893 405.105 146.361 405.286 146.649 405.274Z" fill="#F09A59"/>
<path d="M166.433 343.168C166.061 344.488 166.65 344.56 168.054 344.368C170.875 343.912 173.204 345.197 175.257 347.069C175.653 347.441 176.025 347.885 175.545 348.401C175.065 348.918 174.621 348.521 174.213 348.173C171.728 346.049 169.123 344.896 165.893 346.709C164.345 347.585 163.744 349.11 162.976 350.454C162.664 351.042 162.484 351.978 161.559 351.474C160.635 350.97 161.367 350.274 161.559 349.794C162.066 348.565 162.767 347.426 163.636 346.421C164.572 345.337 165.049 343.931 164.966 342.502C164.883 341.072 164.247 339.731 163.192 338.763C162.007 337.509 160.512 336.59 158.858 336.098C158.294 335.978 157.85 335.69 158.09 335.018C158.33 334.345 158.822 334.562 159.29 334.658C162.388 335.282 167.058 339.039 166.433 343.168Z" fill="#3F3632"/>
<path d="M179.243 385.768C176.734 385.084 173.949 384.087 172.641 380.967C172.532 380.598 172.319 380.269 172.027 380.02C171.735 379.771 171.377 379.612 170.996 379.562C166.266 378.674 163.709 375.625 162.845 371.004C162.737 370.44 162.436 369.803 163.241 369.587C164.045 369.371 164.153 370.056 164.309 370.632C164.525 371.412 164.789 372.168 165.006 372.936C165.87 376.069 168.391 377.174 171.14 378.026C171.86 378.254 171.944 377.858 171.896 377.342C171.895 376.19 172.065 375.046 172.401 373.945C172.509 373.428 172.713 372.864 173.409 373.032C174.105 373.2 174.033 373.777 173.901 374.293C173.505 375.726 173.394 377.222 173.577 378.698C173.961 381.951 176.842 383.739 179.796 384.159C180.468 384.244 181.404 383.751 181.644 384.856C181.765 385.468 181.068 385.768 179.243 385.768Z" fill="#3F3632"/>
<path d="M201.032 389.669C198.547 389.393 196.398 388.577 195.281 386.068C194.717 384.808 194.081 383.571 193.541 382.323C193.468 382.224 193.42 382.109 193.401 381.987C193.381 381.866 193.39 381.742 193.428 381.625C193.465 381.508 193.53 381.402 193.616 381.314C193.702 381.227 193.808 381.161 193.925 381.122C194.489 380.906 194.765 381.327 194.969 381.759C195.377 382.647 195.834 383.511 196.17 384.423C197.634 388.385 201.284 388.565 204.117 387.532C204.765 387.292 205.702 386.332 206.134 387.532C206.566 388.733 205.27 388.733 204.585 388.961C203.469 389.462 202.254 389.704 201.032 389.669V389.669Z" fill="#3F3632"/>
<path d="M182.28 428.752C183.737 428.448 185.241 428.448 186.698 428.752C187.574 428.884 187.898 429.268 187.826 430.108C187.649 430.257 187.435 430.355 187.207 430.393C186.979 430.431 186.746 430.407 186.53 430.324C181.32 429.052 178.967 432.629 178.522 436.998C178.438 437.851 179.051 439.399 177.706 439.399C176.362 439.399 177.106 437.779 177.118 436.998C177.214 433.253 178.702 430.324 182.28 428.752Z" fill="#3F3632"/>
<path d="M184.837 207.35C189.29 208.19 193.512 209.972 197.22 212.576C200.928 215.18 204.037 218.547 206.338 222.45C208.608 226.462 209.872 230.963 210.024 235.57C210.184 240.049 209.394 244.512 207.707 248.665C207.972 244.383 207.811 240.084 207.227 235.834C206.577 231.759 205.215 227.83 203.205 224.226C201.123 220.627 198.476 217.385 195.366 214.624C192.132 211.822 188.602 209.383 184.837 207.35V207.35Z" fill="#84455E"/>
<path d="M193.193 202.921C197.646 203.761 201.868 205.542 205.576 208.147C209.284 210.751 212.393 214.118 214.694 218.021C216.969 222.03 218.234 226.533 218.38 231.141C218.536 235.612 217.747 240.067 216.063 244.212C216.334 239.934 216.173 235.639 215.582 231.393C214.946 227.311 213.584 223.376 211.561 219.773C209.484 216.191 206.836 212.972 203.722 210.243C200.493 207.422 196.962 204.966 193.193 202.921V202.921Z" fill="#84455E"/>
<path d="M197.25 254.319C197.25 254.319 195.858 275.925 184.837 276.189C184.837 276.189 182.028 254.235 197.25 254.319Z" fill="#371B34"/>
<path d="M196.818 254.031C196.818 254.031 198.271 275.421 208.823 275.841C208.823 275.841 212.029 253.935 196.818 254.031Z" fill="#371B34"/>
<path d="M199.591 254.319C199.879 256.192 200.239 258.04 200.624 259.853C201.012 261.657 201.534 263.431 202.184 265.158C202.789 266.864 203.705 268.443 204.885 269.816C206.118 271.176 207.795 272.053 209.615 272.288C208.652 272.391 207.679 272.289 206.758 271.988C205.834 271.668 204.987 271.157 204.273 270.488C202.858 269.12 201.777 267.444 201.116 265.59C200.44 263.791 199.985 261.917 199.759 260.009C199.487 258.125 199.431 256.216 199.591 254.319V254.319Z" fill="#84455E"/>
<path d="M202.689 255.387C203.022 258.044 203.552 260.672 204.274 263.249C204.624 264.529 205.175 265.744 205.907 266.85C206.265 267.387 206.732 267.841 207.279 268.185C207.825 268.528 208.437 268.752 209.076 268.843C208.382 268.916 207.681 268.8 207.047 268.507C206.405 268.194 205.836 267.748 205.378 267.199C204.509 266.102 203.86 264.846 203.47 263.502C202.697 260.871 202.432 258.117 202.689 255.387V255.387Z" fill="#84455E"/>
<path d="M191.248 255.387C191.491 258.118 191.218 260.871 190.444 263.502C190.053 264.846 189.405 266.102 188.535 267.199C188.077 267.748 187.509 268.194 186.866 268.507C186.232 268.8 185.531 268.916 184.837 268.843C185.483 268.747 186.101 268.514 186.65 268.16C187.198 267.806 187.665 267.339 188.019 266.79C188.75 265.684 189.301 264.469 189.651 263.189C190.375 260.632 190.908 258.024 191.248 255.387V255.387Z" fill="#84455E"/>
<path d="M194.669 254.319C194.839 256.214 194.799 258.123 194.549 260.009C194.323 261.917 193.868 263.791 193.192 265.59C192.531 267.444 191.45 269.12 190.035 270.488C189.297 271.167 188.421 271.679 187.466 271.988C186.546 272.289 185.572 272.391 184.609 272.288C186.429 272.053 188.106 271.176 189.339 269.816C190.519 268.443 191.435 266.864 192.04 265.158C192.69 263.431 193.212 261.657 193.601 259.853C194.009 258.04 194.369 256.216 194.669 254.319Z" fill="#84455E"/>
<path d="M185.449 303.737C185.449 303.737 189.903 318.141 201.656 311.791C201.656 311.791 195.846 318.357 183.084 322.078C183.084 322.078 185.485 318.273 185.485 311.011L185.449 303.737Z" fill="#371B34"/>
<path d="M298.885 390.713C296.976 390.521 231.332 392.49 231.332 392.49C229.184 392.214 227.131 391.866 225.186 391.446C223.781 388.253 220.864 384.436 214.862 381.207C211.612 379.562 207.949 378.915 204.333 379.346L203.733 379.418C198.399 380.201 193.243 381.912 188.499 384.472C181.2 384.472 174.825 384.844 170.119 384.303C160.659 383.235 163.204 388.613 163.804 389.693H162.7L136.289 390.893C130.998 391.917 125.626 392.459 120.238 392.514C111.342 392.514 74.847 407.374 74.847 407.374C69.6008 416.785 74.847 424.059 74.847 424.059C85.1713 443.456 170.443 410.711 170.443 410.711C180.839 408.946 185.605 406.114 188.258 403.509C203.421 409.09 233.205 414.888 233.205 414.888C233.205 414.888 268.212 426.027 298.849 431.993C329.486 437.959 323.519 410.519 319.137 405.345C316.232 402.02 318.525 405.441 298.885 390.713ZM231.381 392.502L241.669 393.426C238.103 393.222 234.646 392.934 231.381 392.502V392.502Z" fill="#954441"/>
<path d="M148.522 390.773C145.671 390.777 142.821 390.937 139.987 391.254C137.154 391.53 134.345 391.998 131.583 392.514C126.007 393.591 120.542 395.179 115.257 397.255C113.948 397.771 112.615 398.264 111.331 398.876C110.046 399.488 108.738 400.076 107.501 400.712C104.968 401.985 102.507 403.425 100.01 404.805C97.5131 406.186 95.0281 407.614 92.6271 409.067C91.4266 409.787 90.1661 410.519 88.9656 411.275C88.3653 411.659 87.7771 412.059 87.2008 412.476C86.9007 412.68 86.6246 412.896 86.3485 413.124C86.2133 413.237 86.0923 413.366 85.9883 413.508C85.9553 413.535 85.9301 413.57 85.9153 413.61C85.9005 413.651 85.8967 413.694 85.9043 413.736C85.9043 413.808 86.0483 413.82 86.1324 413.808C86.2164 413.796 85.9283 413.808 85.8803 413.748C85.8714 413.702 85.8722 413.655 85.8825 413.61C85.8928 413.564 85.9125 413.521 85.9403 413.484C86.0468 413.336 86.1631 413.196 86.2884 413.064C86.5405 412.812 86.8167 412.572 87.0808 412.331C87.633 411.875 88.2092 411.455 88.7855 411.023C89.986 410.183 91.1865 409.379 92.315 408.622C94.716 407.05 97.117 405.55 99.578 404.061C104.426 400.983 109.54 398.348 114.86 396.187C120.225 394.126 125.783 392.61 131.451 391.662C137.086 390.688 142.817 390.39 148.522 390.773Z" fill="#371B34"/>
<path d="M164.093 390.533C166.545 392.39 169.12 394.078 171.8 395.587C174.45 397.133 177.183 398.531 179.988 399.776C182.797 400.976 185.63 402.177 188.535 403.089C191.44 404.001 194.418 404.817 197.395 405.598C203.325 407.254 209.292 408.743 215.258 410.291L224.202 412.584L233.134 414.984C230.108 414.444 227.131 413.784 224.07 413.208L215.078 411.191C209.076 409.823 203.073 408.322 197.071 406.75C194.093 405.934 191.14 405.093 188.187 404.121C185.249 403.124 182.375 401.95 179.579 400.604C173.987 397.961 168.777 394.573 164.093 390.533V390.533Z" fill="#371B34"/>
<path d="M188.787 385.324C192.989 386.344 197.19 387.316 201.416 388.169C205.642 389.021 209.82 389.873 214.141 390.497C218.388 391.148 222.669 391.549 226.963 391.698L239.916 392.226C244.238 392.094 248.548 392.046 252.87 392.07C257.191 392.094 261.513 392.166 265.823 392.43C270.133 392.694 274.455 393.03 278.728 393.63C280.872 393.945 282.997 394.382 285.091 394.938C287.218 395.415 289.191 396.418 290.829 397.855C290.018 397.15 289.076 396.612 288.056 396.271C287.046 395.907 286.016 395.602 284.971 395.359C282.871 394.895 280.747 394.55 278.608 394.326C274.335 393.822 270.037 393.582 265.739 393.438C261.441 393.294 257.131 393.222 252.822 393.246C248.512 393.27 244.202 393.342 239.916 393.51H239.856L226.915 392.874C222.581 392.695 218.264 392.213 213.997 391.433C209.724 390.689 205.498 389.789 201.296 388.769C197.094 387.748 192.916 386.596 188.787 385.324Z" fill="#371B34"/>
<path d="M206.302 298.395C205.766 299.495 204.974 300.451 203.992 301.182C203.01 301.913 201.868 302.398 200.66 302.596C199.749 302.726 198.83 302.791 197.911 302.788C197.43 302.788 196.878 302.788 196.878 302.188C196.878 301.588 197.49 301.552 197.923 301.564C200.001 301.739 202.067 301.112 203.697 299.812C204.348 299.225 204.881 298.52 205.27 297.735C205.462 297.351 205.75 297.135 206.158 297.315C206.566 297.495 206.482 297.915 206.302 298.395Z" fill="#371B34"/>
<path d="M206.158 280.498C206.121 280.684 206.011 280.847 205.854 280.953C205.697 281.059 205.504 281.098 205.318 281.063C204.464 280.952 203.597 281.119 202.845 281.538C202.093 281.958 201.496 282.607 201.14 283.391C200.924 283.763 200.636 284.291 200.072 283.943C199.508 283.595 199.844 283.163 200.072 282.743C200.511 281.821 201.212 281.048 202.087 280.521C202.962 279.994 203.973 279.735 204.994 279.778C205.474 279.802 206.062 279.802 206.158 280.498Z" fill="#371B34"/>
<path d="M187.971 280.498C188.009 280.684 188.118 280.847 188.275 280.953C188.433 281.059 188.625 281.098 188.811 281.063C189.665 280.952 190.532 281.119 191.284 281.538C192.036 281.958 192.634 282.607 192.989 283.391C193.205 283.763 193.493 284.291 194.058 283.943C194.622 283.595 194.286 283.163 194.058 282.743C193.618 281.821 192.917 281.048 192.042 280.521C191.167 279.994 190.156 279.735 189.135 279.778C188.667 279.802 188.067 279.802 187.971 280.498Z" fill="#371B34"/>
<g clip-path="url(#clip2_2_95)">
<path d="M269.283 314.559C270.392 314.259 271.44 313.903 272.52 313.692C275.143 313.179 277.685 313.45 280.13 314.621C285.502 317.193 287.904 323.28 286.119 328.833C284.901 332.621 282.319 335.149 278.897 336.966C275.528 338.754 271.902 339.772 268.182 340.503C264.603 341.189 260.978 341.617 257.335 341.782C254.767 341.912 252.894 340.836 251.736 338.544C249.227 333.599 247.082 328.514 245.867 323.09C245.18 320.028 244.839 316.939 245.327 313.812C246.182 308.323 250.497 303.996 255.858 303.292C258.033 302.99 260.253 303.345 262.232 304.309C266.294 306.264 268.353 309.636 269.131 313.928C269.158 314.098 269.185 314.259 269.218 314.423C269.234 314.471 269.256 314.517 269.283 314.559V314.559Z" fill="#FCDDEC"/>
</g>
<g clip-path="url(#clip3_2_95)">
<path d="M241.958 261.53C242.027 260.864 242.053 260.218 242.164 259.586C242.435 258.05 243.115 256.722 244.265 255.636C246.792 253.249 250.611 253.216 253.261 255.352C255.069 256.81 255.905 258.746 256.177 260.991C256.445 263.201 256.239 265.389 255.858 267.568C255.481 269.661 254.954 271.725 254.281 273.744C253.813 275.17 252.834 275.964 251.343 276.115C248.124 276.445 244.905 276.547 241.696 276.072C239.884 275.804 238.131 275.342 236.53 274.421C233.719 272.805 232.267 269.548 233.007 266.481C233.299 265.233 233.957 264.098 234.897 263.222C236.813 261.42 239.082 261.005 241.583 261.481C241.681 261.502 241.774 261.521 241.87 261.537C241.9 261.539 241.929 261.536 241.958 261.53V261.53Z" fill="#FCDDEC"/>
</g>
</g>
</g>
</g>
<defs>
<filter id="filter0_d_2_95" x="0" y="-3.05176e-05" width="383" height="820" filterUnits="userSpaceOnUse" color-interpolation-filters="sRGB">
<feFlood flood-opacity="0" result="BackgroundImageFix"/>
<feColorMatrix in="SourceAlpha" type="matrix" values="0 0 0 0 0 0 0 0 0 0 0 0 0 0 0 0 0 0 127 0" result="hardAlpha"/>
<feOffset dy="4"/>
<feGaussianBlur stdDeviation="2"/>
<feComposite in2="hardAlpha" operator="out"/>
<feColorMatrix type="matrix" values="0 0 0 0 0 0 0 0 0 0 0 0 0 0 0 0 0 0 0.25 0"/>
<feBlend mode="normal" in2="BackgroundImageFix" result="effect1_dropShadow_2_95"/>
<feBlend mode="normal" in="SourceGraphic" in2="effect1_dropShadow_2_95" result="shape"/>
</filter>
<clipPath id="clip0_2_95">
<rect x="379" width="812" height="375" rx="40" transform="rotate(90 379 0)" fill="white"/>
</clipPath>
<clipPath id="clip1_2_95">
<rect width="325" height="768" fill="white" transform="translate(29 201)"/>
</clipPath>
<clipPath id="clip2_2_95">
<rect width="44" height="36" fill="white" transform="translate(252.941 298.893) rotate(29.9863)"/>
</clipPath>
<clipPath id="clip3_2_95">
<rect width="25.6778" height="21.0091" fill="white" transform="translate(230 267.147) rotate(-38.9646)"/>
</clipPath>
</defs>
</svg>
